<svg width="193" height="193" viewBox="0 0 193 193" fill="none" xmlns="http://www.w3.org/2000/svg">
<path d="M106.03 7.75598C133.583 -7.3726 155.827 5.39417 159.132 7.47965C159.41 7.65476 159.556 7.95178 159.556 8.27992V22.3949C159.556 23.2598 158.491 23.7846 157.771 23.3045C152.334 19.6765 134.584 10.7767 106.03 24.6349C77.4636 38.4994 59.7111 29.5854 54.2825 25.9604C53.5668 25.4825 52.5186 25.9983 52.5186 26.8588V95.9388C52.5186 96.2676 52.6666 96.5665 52.9447 96.7419C56.2665 98.8367 78.5023 111.585 106.042 96.463C133.599 81.3322 155.845 94.1048 159.145 96.1873C159.422 96.3622 159.567 96.6585 159.567 96.9862V111.097C159.567 111.963 158.498 112.489 157.778 112.008C152.336 108.378 134.588 99.4876 106.042 113.342C77.4773 127.205 59.7248 118.294 54.2947 114.668C53.5766 114.189 52.5186 114.711 52.5186 115.575V191.373C52.5186 191.925 52.0708 192.373 51.5186 192.373H34.002C33.4497 192.373 33.002 191.925 33.002 191.373V8.7589C33.002 8.20662 33.4497 7.75891 34.002 7.75891H52.5028C52.5034 7.75891 52.5039 7.7584 52.5039 7.75777C52.5039 7.75693 52.5048 7.75641 52.5055 7.75682C52.5062 7.7572 52.507 7.75772 52.508 7.75838C52.5085 7.75872 52.5091 7.75891 52.5097 7.75891H52.5147C52.5168 7.75891 52.5186 7.76062 52.5186 7.76274C52.5186 7.76401 52.5183 7.76461 52.5194 7.76532C53.1851 8.21992 76.5734 23.9301 106.03 7.75598Z" fill="white"/>
</svg>
