<svg width="1028" height="228" viewBox="0 0 1028 228" fill="none" xmlns="http://www.w3.org/2000/svg">
<path d="M371.942 94.0777C379.182 94.0777 385.879 95.4045 392.033 98.0591C397.36 100.313 401.861 103.48 405.535 107.56C406.175 108.27 407.418 107.835 407.418 106.879V95.982C407.418 95.4297 407.866 94.982 408.418 94.982H422.889C423.441 94.982 423.889 95.4297 423.889 95.982V177.88C423.889 194.653 419.726 207.021 411.4 214.985C403.074 223.07 390.646 227.112 374.114 227.112C365.064 227.112 356.437 225.845 348.231 223.311C340.359 220.996 333.931 217.681 328.946 213.366C328.581 213.05 328.507 212.514 328.762 212.104L336.029 200.414C336.354 199.892 337.068 199.784 337.544 200.172C341.84 203.675 347.032 206.441 353.118 208.469C359.755 210.762 366.573 211.909 373.571 211.909C384.793 211.909 393.059 209.253 398.368 203.944C403.798 198.635 406.513 190.55 406.513 179.69V174.861C406.513 173.924 405.317 173.482 404.671 174.16C400.923 178.093 396.469 181.143 391.309 183.31C385.396 185.723 378.941 186.93 371.942 186.93C362.772 186.93 354.445 185 346.964 181.138C339.603 177.156 333.811 171.666 329.588 164.668C325.365 157.548 323.253 149.464 323.253 140.414C323.253 131.364 325.365 123.339 329.588 116.34C333.811 109.221 339.603 103.731 346.964 99.8697C354.445 96.0084 362.772 94.0777 371.942 94.0777ZM169.735 161.228C169.735 166.417 170.942 170.399 173.355 173.174C175.889 175.95 179.63 177.337 184.577 177.337C187.092 177.337 189.48 176.918 191.743 176.079C192.4 175.836 193.131 176.275 193.176 176.974L193.942 189.08C193.97 189.522 193.703 189.932 193.283 190.075C189.516 191.358 185.588 191.999 181.5 191.999C172.209 191.999 165.029 189.464 159.961 184.396C154.893 179.207 152.359 171.967 152.359 162.676V57.6099C152.359 57.0576 152.807 56.6099 153.359 56.6099H168.735C169.288 56.6099 169.735 57.0576 169.735 57.6099V161.228ZM248.384 94.0777C255.262 94.0777 261.597 95.4046 267.389 98.0591C272.274 100.197 276.474 103.236 279.986 107.177C280.623 107.891 281.869 107.457 281.869 106.5V95.982C281.869 95.4297 282.317 94.982 282.869 94.982H298.245C298.797 94.982 299.245 95.4297 299.245 95.982V189.913C299.245 190.465 298.797 190.913 298.245 190.913H283.593C283.04 190.913 282.593 190.465 282.593 189.913V178.784C282.593 177.815 281.319 177.387 280.691 178.124C277.166 182.26 272.912 185.498 267.932 187.836C262.019 190.611 255.503 191.999 248.384 191.999C239.093 191.999 230.767 189.947 223.406 185.844C216.046 181.742 210.254 176.01 206.03 168.649C201.928 161.168 199.876 152.601 199.876 142.948C199.876 133.294 201.928 124.787 206.03 117.426C210.254 110.066 216.046 104.334 223.406 100.231C230.767 96.1285 239.093 94.0778 248.384 94.0777ZM643.614 94.0777C650.492 94.0777 656.827 95.4046 662.619 98.0591C667.505 100.197 671.704 103.236 675.216 107.177C675.853 107.891 677.1 107.457 677.1 106.5V95.982C677.1 95.4297 677.547 94.982 678.1 94.982H693.476C694.028 94.982 694.476 95.4297 694.476 95.982V189.913C694.476 190.465 694.028 190.913 693.476 190.913H678.823C678.271 190.913 677.823 190.465 677.823 189.913V178.784C677.823 177.815 676.55 177.387 675.921 178.124C672.396 182.26 668.144 185.498 663.163 187.836C657.25 190.611 650.734 191.999 643.614 191.999C634.323 191.999 625.997 189.947 618.637 185.844C611.276 181.742 605.484 176.01 601.261 168.649C597.158 161.168 595.107 152.601 595.106 142.948C595.106 133.294 597.158 124.787 601.261 117.426C605.484 110.066 611.276 104.334 618.637 100.231C625.997 96.1285 634.323 94.0778 643.614 94.0777ZM865.084 94.0777C873.772 94.0778 881.676 96.0684 888.795 100.05C895.914 103.912 901.585 109.402 905.809 116.521C909.905 123.426 912.071 131.354 912.308 140.302C912.321 140.786 911.979 141.204 911.505 141.297L837.273 155.755C836.669 155.873 836.313 156.502 836.542 157.072C838.992 163.182 842.895 167.946 848.251 171.365C854.043 174.985 860.981 176.794 869.065 176.794C880.106 176.794 889.076 173.213 895.976 166.049C896.396 165.612 897.106 165.625 897.496 166.089L905.634 175.792C905.945 176.162 905.946 176.704 905.629 177.069C901.491 181.825 896.302 185.474 890.062 188.016C883.666 190.671 876.486 191.999 868.522 191.999C858.387 191.999 849.397 189.947 841.554 185.844C833.71 181.621 827.616 175.769 823.272 168.288C819.049 160.806 816.938 152.36 816.938 142.948C816.938 133.657 818.989 125.27 823.092 117.789C827.315 110.307 833.047 104.515 840.287 100.413C847.648 96.1894 855.913 94.0777 865.084 94.0777ZM74.0127 7.36286C101.565 -7.76528 123.808 5.00049 127.114 7.08649C127.392 7.2616 127.538 7.55913 127.538 7.88727V22.0015C127.538 22.8663 126.473 23.3914 125.754 22.9117C120.317 19.2837 102.567 10.3836 74.0127 24.2418C45.446 38.1063 27.6932 29.192 22.2646 25.567C21.5491 25.0896 20.5013 25.6052 20.501 26.4654V95.5455C20.501 95.8742 20.6487 96.1738 20.9268 96.3492C24.2225 98.4277 46.1384 110.993 73.3799 96.4195L74.6689 95.7203C101.927 81.138 123.852 93.7278 127.127 95.7945C127.404 95.9694 127.55 96.2656 127.55 96.5933V110.705C127.549 111.57 126.481 112.095 125.761 111.615C120.318 107.985 102.57 99.0945 74.0244 112.949C45.4598 126.812 27.7075 117.901 22.2773 114.275C21.5592 113.795 20.501 114.319 20.501 115.182V190.98C20.501 191.532 20.0533 191.98 19.501 191.98H1.98438C1.43209 191.98 0.984375 191.532 0.984375 190.98V8.36578C0.984426 7.81354 1.43212 7.36579 1.98438 7.36579H20.4844C20.485 7.36579 20.4856 7.36553 20.4861 7.36508C20.4862 7.3649 20.4864 7.36475 20.4867 7.36463L20.4868 7.36458C20.4877 7.36411 20.4887 7.36425 20.4894 7.36505C20.4895 7.36507 20.4895 7.3651 20.4895 7.36512C20.4899 7.36561 20.4906 7.36579 20.4912 7.36579H20.4971C20.4992 7.36579 20.501 7.36758 20.501 7.36969C20.501 7.37096 20.5009 7.37191 20.502 7.37262C21.1735 7.83109 44.5596 23.5349 74.0127 7.36286ZM477.724 117.693C477.724 118.245 478.171 118.693 478.724 118.693H549.486C550.039 118.693 550.486 118.245 550.486 117.693V65.2125C550.486 64.6602 550.934 64.2125 551.486 64.2125H567.586C568.138 64.2125 568.586 64.6602 568.586 65.2125V189.913C568.586 190.465 568.138 190.913 567.586 190.913H551.486C550.934 190.913 550.486 190.465 550.486 189.913V135.44C550.486 134.888 550.039 134.44 549.486 134.44H478.724C478.171 134.44 477.724 134.888 477.724 135.44V189.913C477.724 190.465 477.276 190.913 476.724 190.913H460.624C460.072 190.913 459.624 190.465 459.624 189.913V65.2125C459.624 64.6602 460.072 64.2125 460.624 64.2125H476.724C477.276 64.2125 477.724 64.6602 477.724 65.2125V117.693ZM760.652 169.784C760.997 170.589 762.137 170.594 762.488 169.792L794.965 95.5811C795.125 95.2171 795.484 94.982 795.881 94.982H810.712C811.433 94.982 811.917 95.7223 811.628 96.383L770.512 190.314C770.353 190.678 769.993 190.913 769.596 190.913H753.166C752.768 190.913 752.409 190.678 752.25 190.314L711.133 96.383C710.844 95.7223 711.328 94.982 712.049 94.982H727.96C728.36 94.982 728.721 95.2205 728.879 95.5883L760.652 169.784ZM987.856 94.0777C1000.04 94.0777 1009.7 97.6372 1016.82 104.756C1024.06 111.755 1027.68 122.072 1027.68 135.708V189.913C1027.68 190.465 1027.23 190.913 1026.68 190.913H1011.3C1010.75 190.913 1010.3 190.465 1010.3 189.913V137.699C1010.3 128.407 1008.07 121.409 1003.6 116.703C999.139 111.997 992.744 109.643 984.418 109.643C975.006 109.643 967.585 112.419 962.155 117.969C956.725 123.399 954.01 131.243 954.01 141.5V189.913C954.01 190.465 953.562 190.913 953.01 190.913H937.634C937.081 190.913 936.634 190.465 936.634 189.913V95.982C936.634 95.4297 937.081 94.982 937.634 94.982H952.286C952.838 94.982 953.286 95.4297 953.286 95.982V106.317C953.286 107.292 954.585 107.723 955.222 106.985C958.459 103.227 962.52 100.252 967.404 98.0591C973.437 95.4047 980.255 94.0777 987.856 94.0777ZM249.832 109.282C243.678 109.282 238.127 110.669 233.18 113.444C228.353 116.219 224.492 120.202 221.596 125.39C218.82 130.458 217.434 136.311 217.434 142.948C217.434 149.584 218.821 155.497 221.596 160.685C224.492 165.753 228.353 169.735 233.18 172.631C238.127 175.407 243.678 176.794 249.832 176.794C255.865 176.794 261.355 175.407 266.303 172.631C271.25 169.735 275.111 165.753 277.887 160.685C280.662 155.497 282.05 149.584 282.05 142.948C282.05 136.311 280.662 130.458 277.887 125.39C275.111 120.202 271.25 116.219 266.303 113.444C261.356 110.669 255.865 109.282 249.832 109.282ZM645.062 109.282C638.909 109.282 633.357 110.669 628.41 113.444C623.584 116.219 619.722 120.202 616.826 125.39C614.051 130.458 612.664 136.311 612.664 142.948C612.664 149.584 614.051 155.497 616.826 160.685C619.722 165.753 623.584 169.735 628.41 172.631C633.357 175.407 638.909 176.794 645.062 176.794C651.096 176.794 656.586 175.407 661.533 172.631C666.481 169.735 670.342 165.753 673.117 160.685C675.892 155.497 677.28 149.584 677.28 142.948C677.28 136.311 675.893 130.458 673.117 125.39C670.342 120.202 666.48 116.219 661.533 113.444C656.586 110.669 651.096 109.282 645.062 109.282ZM373.933 109.282C364.159 109.282 356.195 112.177 350.041 117.969C343.887 123.641 340.811 131.122 340.811 140.414C340.811 146.447 342.197 151.877 344.973 156.704C347.869 161.41 351.791 165.09 356.738 167.745C361.806 170.399 367.538 171.726 373.933 171.726C380.207 171.726 385.818 170.399 390.766 167.745C395.834 165.09 399.756 161.41 402.531 156.704C405.427 151.877 406.875 146.447 406.875 140.414C406.875 131.122 403.798 123.641 397.645 117.969C391.491 112.177 383.586 109.282 373.933 109.282ZM865.084 108.739C859.051 108.739 853.62 110.126 848.794 112.901C844.088 115.676 840.408 119.599 837.753 124.667C835.098 129.614 833.771 135.406 833.771 142.043V142.646C833.771 143.272 834.34 143.745 834.956 143.628L894.113 132.46C894.669 132.355 895.029 131.81 894.889 131.262C893.218 124.724 889.799 119.388 884.632 115.254C879.202 110.911 872.686 108.739 865.084 108.739Z" fill="#F9F9FB"/>
</svg>
